<svg xmlns="http://www.w3.org/2000/svg" viewBox="0 0 64 64" role="img" aria-label="Schrödinger's Cards">
  <defs>
    <linearGradient id="vwTop" x1="6" y1="4" x2="54" y2="32" gradientUnits="userSpaceOnUse">
      <stop offset="0" stop-color="#ff6ec7"/>
      <stop offset=".5" stop-color="#d264ff"/>
      <stop offset="1" stop-color="#b48bff"/>
    </linearGradient>
    <linearGradient id="vwBot" x1="8" y1="33" x2="56" y2="60" gradientUnits="userSpaceOnUse">
      <stop offset="0" stop-color="#8fdcff"/>
      <stop offset="1" stop-color="#4f7dff"/>
    </linearGradient>
    <linearGradient id="vwBtn" x1="26" y1="26" x2="38" y2="38" gradientUnits="userSpaceOnUse">
      <stop offset="0" stop-color="#ffffff"/>
      <stop offset="1" stop-color="#b7e6ff"/>
    </linearGradient>
    <clipPath id="vwBall"><circle cx="32" cy="32" r="29"/></clipPath>
    <clipPath id="vwTopHalf"><path d="M4 32a28 28 0 0 1 56 0z"/></clipPath>
  </defs>

  <circle cx="32" cy="32" r="30" fill="#0d1124"/>

  <path d="M4 32a28 28 0 0 1 56 0z" fill="url(#vwTop)"/>
  <g clip-path="url(#vwTopHalf)" fill="#0d1124" opacity=".62">
    <rect x="0" y="16.5" width="64" height="1.7"/>
    <rect x="0" y="21" width="64" height="2.3"/>
    <rect x="0" y="25.6" width="64" height="3"/>
  </g>

  <path d="M4 32a28 28 0 0 0 56 0z" fill="url(#vwBot)"/>

  <g clip-path="url(#vwBall)">
    <rect x="0" y="28.6" width="64" height="6.8" fill="#0d1124"/>
  </g>

  <circle cx="32" cy="32" r="10" fill="#0d1124"/>
  <circle cx="32" cy="32" r="6.6" fill="url(#vwBtn)"/>
</svg>
